<?xml version="1.0" encoding="UTF-8" standalone="no"?>
<svg
   width="974.91827"
   height="238.26697"
   viewBox="0 0 974.91826 238.26697"
   fill="none"
   version="1.1"
   id="svg11"
   sodipodi:docname="logo.svg"
   inkscape:version="1.1.2 (0a00cf5339, 2022-02-04)"
   xmlns:inkscape="http://www.inkscape.org/namespaces/inkscape"
   xmlns:sodipodi="http://sodipodi.sourceforge.net/DTD/sodipodi-0.dtd"
   xmlns="http://www.w3.org/2000/svg"
   xmlns:svg="http://www.w3.org/2000/svg">
  <sodipodi:namedview
     id="namedview13"
     pagecolor="#ffffff"
     bordercolor="#666666"
     borderopacity="1.0"
     inkscape:pageshadow="2"
     inkscape:pageopacity="0.0"
     inkscape:pagecheckerboard="0"
     showgrid="false"
     inkscape:zoom="0.95169365"
     inkscape:cx="511.19391"
     inkscape:cy="17.862891"
     inkscape:window-width="1920"
     inkscape:window-height="1011"
     inkscape:window-x="0"
     inkscape:window-y="0"
     inkscape:window-maximized="1"
     inkscape:current-layer="svg11" />
  <defs
     id="defs9">
    <clipPath
       id="clip0_320_490">
      <rect
         width="24"
         height="24"
         fill="#ffffff"
         id="rect6"
         x="0"
         y="0" />
    </clipPath>
    <clipPath
       id="clip0_320_490-0">
      <rect
         width="24"
         height="24"
         fill="#ffffff"
         id="rect6-6"
         x="0"
         y="0" />
    </clipPath>
    <clipPath
       id="clip0_320_479">
      <rect
         width="24"
         height="24"
         fill="#ffffff"
         id="rect73358"
         x="0"
         y="0" />
    </clipPath>
    <clipPath
       id="clip0_320_431">
      <rect
         width="24"
         height="24"
         fill="#ffffff"
         id="rect78278"
         x="0"
         y="0" />
    </clipPath>
    <clipPath
       id="clip0_320_426">
      <rect
         width="24"
         height="24"
         fill="#ffffff"
         id="rect79105"
         x="0"
         y="0" />
    </clipPath>
    <clipPath
       id="clip0_320_379">
      <rect
         width="24"
         height="24"
         fill="#ffffff"
         id="rect79960"
         x="0"
         y="0" />
    </clipPath>
  </defs>
  <g
     id="g82893">
    <g
       id="g82752"
       transform="matrix(4.7694132,0,0,4.7694132,-39.463875,-11.204769)">
      <text
         xml:space="preserve"
         style="font-style:normal;font-weight:normal;font-size:40px;line-height:1.25;font-family:sans-serif;fill:#000000;fill-opacity:1;stroke:none;stroke-width:0.6;stroke-miterlimit:4;stroke-dasharray:none"
         x="67.125107"
         y="41.861485"
         id="text8696"><tspan
           sodipodi:role="line"
           id="tspan8694"
           x="67.125107"
           y="41.861485"
           style="font-style:normal;font-variant:normal;font-weight:normal;font-stretch:normal;font-family:'0xProto Nerd Font Mono';-inkscape-font-specification:'0xProto Nerd Font Mono';stroke:#000000;stroke-width:0.6;stroke-linejoin:round;stroke-miterlimit:4;stroke-dasharray:none;stroke-opacity:1">PoyPoy</tspan></text>
      <g
         style="fill:#ff424b;fill-opacity:1"
         id="g73371"
         transform="matrix(2.7021313,0,0,2.7021313,-4.7408335,-5.0267516)">
        <g
           style="fill:#e03139;fill-opacity:1"
           id="g79119"
           transform="matrix(0.92439611,0,0,0.92439611,2.5056522,1.343121)">
          <g
             clip-path="url(#clip0_320_426)"
             id="g79103"
             style="fill:#e03139;fill-opacity:1">
            <path
               d="m 13.3008,13 c 1.4,0 2.5,1.3 2.2,2.7 3.2,-0.7 5.7,-3.6 5.7,-7 0,-4 -3.2,-7.2 -7.2,-7.2 -4,0 -7.20002,3.2 -7.20002,7.2 0,1.6 0.5,3.1 1.4,4.3 z m 3.2,-5 v 1 h -2 v 1 h 2 v 1 h -2 v 1 h -1 v -1 h -2 v -1 h 2 V 9 h -2 V 8 h 1.4 l -1.7,-3 h 1.1 l 1.7,2.9 1.6,-2.9 h 1.1 l -1.7,3 z"
               fill="#1a1a1c"
               id="path79099"
               style="fill:#e03139;fill-opacity:1" />
            <path
               d="M 19.6,17.5002 H 9.5 v -1 h 3.8 c 0.7,0 1.2,-0.6 1.2,-1.2 0,-0.6 -0.6,-1.3 -1.3,-1.3 H 5 l -2.5,-0.8 v 5.5 l 6.9,2.4 c 1.1,0.4 2.3,0.5 3.5,0.3 l 7,-1.2 c 0.7,-0.1 1.2,-0.7 1.1,-1.5 -0.1,-0.7 -0.6,-1.2 -1.4,-1.2 z"
               fill="#1a1a1c"
               id="path79101"
               style="fill:#e03139;fill-opacity:1" />
          </g>
        </g>
      </g>
    </g>
  </g>
</svg>
